<svg width="31" height="31" viewBox="0 0 31 31" fill="none" xmlns="http://www.w3.org/2000/svg">
<g clip-path="url(#clip0_177_2)">
<path d="M25.1875 12.5938C25.1875 15.3729 24.2854 17.94 22.7656 20.0229L30.4309 27.6941C31.1877 28.451 31.1877 29.6801 30.4309 30.4369C29.674 31.1938 28.4449 31.1938 27.6881 30.4369L20.0229 22.7656C17.94 24.2914 15.3729 25.1875 12.5937 25.1875C5.63691 25.1875 0 19.5506 0 12.5938C0 5.63691 5.63691 0 12.5937 0C19.5506 0 25.1875 5.63691 25.1875 12.5938ZM12.5937 21.3125C13.7387 21.3125 14.8725 21.087 15.9303 20.6488C16.9881 20.2107 17.9492 19.5684 18.7588 18.7588C19.5684 17.9492 20.2107 16.9881 20.6488 15.9303C21.087 14.8725 21.3125 13.7387 21.3125 12.5938C21.3125 11.4488 21.087 10.315 20.6488 9.25723C20.2107 8.19942 19.5684 7.23827 18.7588 6.42866C17.9492 5.61905 16.9881 4.97683 15.9303 4.53868C14.8725 4.10052 13.7387 3.875 12.5937 3.875C11.4488 3.875 10.315 4.10052 9.25723 4.53868C8.19942 4.97683 7.23827 5.61905 6.42866 6.42866C5.61905 7.23827 4.97683 8.19942 4.53867 9.25723C4.10052 10.315 3.875 11.4488 3.875 12.5938C3.875 13.7387 4.10052 14.8725 4.53867 15.9303C4.97683 16.9881 5.61905 17.9492 6.42866 18.7588C7.23827 19.5684 8.19942 20.2107 9.25723 20.6488C10.315 21.087 11.4488 21.3125 12.5937 21.3125Z" fill="#381806"/>
</g>
<defs>
<clipPath id="clip0_177_2">
<rect width="31" height="31" fill="white"/>
</clipPath>
</defs>
</svg>
