<svg width="58" height="62" viewBox="0 0 58 62" fill="none" xmlns="http://www.w3.org/2000/svg">
<path d="M29.1812 1.50097C29.0846 0.803535 28.5892 0.235252 27.9367 0.131928C25.2665 -0.268453 22.548 0.248168 20.1556 1.6043L11.2146 6.70592C8.83436 8.06205 6.91325 10.1931 5.72917 12.7891L1.2949 22.5533C0.110821 25.1493 -0.275818 28.094 0.195398 30.9354L1.94736 41.6295C2.41857 44.4838 3.7114 47.0927 5.65667 49.1076L12.9424 56.6502C14.8877 58.665 17.3646 59.9566 20.0348 60.357L30.0633 61.8681C32.7335 62.2685 35.452 61.7518 37.8444 60.3957L46.7854 55.2941C49.1656 53.938 51.0868 51.8069 52.2708 49.198L56.7051 39.4467C57.8892 36.8507 58.2758 33.906 57.8046 31.0646C57.6959 30.3801 57.1642 29.8634 56.5239 29.7601C50.3014 28.701 45.3113 23.6769 43.8977 17.1804C43.6802 16.1988 42.9311 15.4497 42.0007 15.2947C35.4037 14.1711 30.1962 8.57867 29.1692 1.50097H29.1812ZM23.2004 16.5346C24.2258 16.5346 25.2093 16.9701 25.9344 17.7451C26.6595 18.5202 27.0668 19.5715 27.0668 20.6676C27.0668 21.7637 26.6595 22.815 25.9344 23.59C25.2093 24.3651 24.2258 24.8006 23.2004 24.8006C22.175 24.8006 21.1916 24.3651 20.4665 23.59C19.7414 22.815 19.334 21.7637 19.334 20.6676C19.334 19.5715 19.7414 18.5202 20.4665 17.7451C21.1916 16.9701 22.175 16.5346 23.2004 16.5346ZM15.4676 41.3324C15.4676 40.2363 15.875 39.185 16.6001 38.41C17.3252 37.6349 18.3086 37.1994 19.334 37.1994C20.3595 37.1994 21.3429 37.6349 22.068 38.41C22.7931 39.185 23.2004 40.2363 23.2004 41.3324C23.2004 42.4285 22.7931 43.4798 22.068 44.2549C21.3429 45.0299 20.3595 45.4654 19.334 45.4654C18.3086 45.4654 17.3252 45.0299 16.6001 44.2549C15.875 43.4798 15.4676 42.4285 15.4676 41.3324ZM42.5324 33.0665C43.5578 33.0665 44.5412 33.5019 45.2663 34.277C45.9914 35.0521 46.3988 36.1033 46.3988 37.1994C46.3988 38.2956 45.9914 39.3468 45.2663 40.1219C44.5412 40.897 43.5578 41.3324 42.5324 41.3324C41.5069 41.3324 40.5235 40.897 39.7984 40.1219C39.0733 39.3468 38.666 38.2956 38.666 37.1994C38.666 36.1033 39.0733 35.0521 39.7984 34.277C40.5235 33.5019 41.5069 33.0665 42.5324 33.0665Z" fill="#381806"/>
</svg>
