<svg width="57" height="57" viewBox="0 0 57 57" fill="none" xmlns="http://www.w3.org/2000/svg">
<path d="M28.333 3.07261C28.4221 2.47143 28.8786 1.98159 29.4797 1.89253C31.9401 1.54741 34.445 1.99272 36.6493 3.16167L44.8875 7.55913C47.0807 8.72807 48.8508 10.565 49.9418 12.8027L54.0276 21.2191C55.1186 23.4568 55.4748 25.9951 55.0407 28.4443L53.4264 37.6623C52.9922 40.1226 51.801 42.3714 50.0086 44.1082L43.2955 50.6097C41.5032 52.3464 39.2209 53.4597 36.7606 53.8048L27.5204 55.1074C25.06 55.4525 22.5551 55.0072 20.3508 53.8382L12.1125 49.4408C9.91938 48.2718 8.14926 46.4349 7.05824 44.1861L2.9725 35.7808C1.88149 33.5431 1.52524 31.0048 1.95942 28.5556C2.05961 27.9656 2.54946 27.5203 3.1395 27.4312C8.87289 26.5183 13.4707 22.1876 14.7733 16.5878C14.9737 15.7417 15.6639 15.096 16.5211 14.9624C22.5996 13.9939 27.3979 9.17339 28.3442 3.07261H28.333ZM33.8438 16.0312C32.899 16.0312 31.9928 16.4065 31.3247 17.0746C30.6566 17.7427 30.2813 18.6489 30.2813 19.5937C30.2813 20.5385 30.6566 21.4447 31.3247 22.1128C31.9928 22.7809 32.899 23.1562 33.8438 23.1562C34.7886 23.1562 35.6948 22.7809 36.3629 22.1128C37.031 21.4447 37.4063 20.5385 37.4063 19.5937C37.4063 18.6489 37.031 17.7427 36.3629 17.0746C35.6948 16.4065 34.7886 16.0312 33.8438 16.0312ZM40.9688 37.4062C40.9688 36.4614 40.5935 35.5552 39.9254 34.8871C39.2573 34.219 38.3511 33.8437 37.4063 33.8437C36.4615 33.8437 35.5553 34.219 34.8872 34.8871C34.2191 35.5552 33.8438 36.4614 33.8438 37.4062C33.8438 38.351 34.2191 39.2572 34.8872 39.9253C35.5553 40.5934 36.4615 40.9687 37.4063 40.9687C38.3511 40.9687 39.2573 40.5934 39.9254 39.9253C40.5935 39.2572 40.9688 38.351 40.9688 37.4062ZM16.0313 30.2812C15.0865 30.2812 14.1803 30.6565 13.5122 31.3246C12.8441 31.9927 12.4688 32.8989 12.4688 33.8437C12.4688 34.7885 12.8441 35.6947 13.5122 36.3628C14.1803 37.0309 15.0865 37.4062 16.0313 37.4062C16.9761 37.4062 17.8823 37.0309 18.5504 36.3628C19.2185 35.6947 19.5938 34.7885 19.5938 33.8437C19.5938 32.8989 19.2185 31.9927 18.5504 31.3246C17.8823 30.6565 16.9761 30.2812 16.0313 30.2812Z" fill="#381806"/>
</svg>
