<svg width="31" height="31" viewBox="0 0 31 31" fill="none" xmlns="http://www.w3.org/2000/svg">
<path d="M8.18594 7.1082L6.60566 11.625H24.3943L22.8141 7.1082C22.5416 6.3332 21.809 5.8125 20.9855 5.8125H10.0145C9.19102 5.8125 8.4584 6.3332 8.18594 7.1082ZM2.39766 11.9156L4.52891 5.83066C5.34629 3.49961 7.54414 1.9375 10.0145 1.9375H20.9855C23.4559 1.9375 25.6537 3.49961 26.4711 5.83066L28.6023 11.9156C30.007 12.4969 31 13.8834 31 15.5V24.2188V27.125C31 28.1967 30.1342 29.0625 29.0625 29.0625H27.125C26.0533 29.0625 25.1875 28.1967 25.1875 27.125V24.2188H5.8125V27.125C5.8125 28.1967 4.94668 29.0625 3.875 29.0625H1.9375C0.86582 29.0625 0 28.1967 0 27.125V24.2188V15.5C0 13.8834 0.992969 12.4969 2.39766 11.9156ZM7.75 17.4375C7.75 16.9236 7.54587 16.4308 7.18252 16.0675C6.81917 15.7041 6.32636 15.5 5.8125 15.5C5.29864 15.5 4.80583 15.7041 4.44248 16.0675C4.07913 16.4308 3.875 16.9236 3.875 17.4375C3.875 17.9514 4.07913 18.4442 4.44248 18.8075C4.80583 19.1709 5.29864 19.375 5.8125 19.375C6.32636 19.375 6.81917 19.1709 7.18252 18.8075C7.54587 18.4442 7.75 17.9514 7.75 17.4375ZM25.1875 19.375C25.7014 19.375 26.1942 19.1709 26.5575 18.8075C26.9209 18.4442 27.125 17.9514 27.125 17.4375C27.125 16.9236 26.9209 16.4308 26.5575 16.0675C26.1942 15.7041 25.7014 15.5 25.1875 15.5C24.6736 15.5 24.1808 15.7041 23.8175 16.0675C23.4541 16.4308 23.25 16.9236 23.25 17.4375C23.25 17.9514 23.4541 18.4442 23.8175 18.8075C24.1808 19.1709 24.6736 19.375 25.1875 19.375Z" fill="#381806"/>
</svg>
