<svg width="23" height="37" viewBox="0 0 23 37" fill="none" xmlns="http://www.w3.org/2000/svg">
<path d="M5.7499 11.5625C5.7499 9.01152 7.81272 6.9375 10.3499 6.9375H12.6499C15.1871 6.9375 17.2499 9.01152 17.2499 11.5625V11.8227C17.2499 13.398 16.4521 14.865 15.1368 15.7105L12.1037 17.6689C10.2924 18.8396 9.1999 20.8559 9.1999 23.0166V23.125C9.1999 24.4041 10.2277 25.4375 11.4999 25.4375C12.7721 25.4375 13.7999 24.4041 13.7999 23.125V23.0238C13.7999 22.4312 14.1018 21.882 14.5905 21.5641L17.6237 19.6057C20.2543 17.9002 21.8499 14.9734 21.8499 11.8227V11.5625C21.8499 6.45332 17.7315 2.3125 12.6499 2.3125H10.3499C5.26834 2.3125 1.1499 6.45332 1.1499 11.5625C1.1499 12.8416 2.17771 13.875 3.4499 13.875C4.72209 13.875 5.7499 12.8416 5.7499 11.5625ZM11.4999 34.6875C12.2624 34.6875 12.9937 34.383 13.5328 33.8409C14.072 33.2988 14.3749 32.5635 14.3749 31.7969C14.3749 31.0302 14.072 30.295 13.5328 29.7529C12.9937 29.2108 12.2624 28.9062 11.4999 28.9062C10.7374 28.9062 10.0061 29.2108 9.46697 29.7529C8.9278 30.295 8.6249 31.0302 8.6249 31.7969C8.6249 32.5635 8.9278 33.2988 9.46697 33.8409C10.0061 34.383 10.7374 34.6875 11.4999 34.6875Z" fill="#381806"/>
</svg>
