<svg width="27" height="31" viewBox="0 0 27 31" fill="none" xmlns="http://www.w3.org/2000/svg">
<g clip-path="url(#clip0_56_112)">
<path d="M5.20714 0.333008L3.72455 2.88203C3.49554 3.27559 3.375 3.72969 3.375 4.18984V4.35938C3.375 5.69746 4.45379 6.78125 5.78571 6.78125C7.11763 6.78125 8.19643 5.69746 8.19643 4.35938V4.18984C8.19643 3.72969 8.07589 3.28164 7.84688 2.88203L6.36429 0.333008C6.24375 0.127148 6.02679 0 5.78571 0C5.54464 0 5.32768 0.127148 5.20714 0.333008ZM12.9214 0.333008L11.4388 2.88203C11.2098 3.27559 11.0893 3.72969 11.0893 4.18984V4.35938C11.0893 5.69746 12.1681 6.78125 13.5 6.78125C14.8319 6.78125 15.9107 5.69746 15.9107 4.35938V4.18984C15.9107 3.72969 15.7902 3.28164 15.5612 2.88203L14.0786 0.333008C13.958 0.127148 13.7411 0 13.5 0C13.2589 0 13.042 0.127148 12.9214 0.333008ZM19.1531 2.88203C18.9241 3.27559 18.8036 3.72969 18.8036 4.18984V4.35938C18.8036 5.69746 19.8824 6.78125 21.2143 6.78125C22.5462 6.78125 23.625 5.69746 23.625 4.35938V4.18984C23.625 3.72969 23.5045 3.28164 23.2754 2.88203L21.7929 0.333008C21.6723 0.127148 21.4554 0 21.2143 0C20.9732 0 20.7563 0.127148 20.6357 0.333008L19.1531 2.88203ZM7.71429 10.6562C7.71429 9.58457 6.85246 8.71875 5.78571 8.71875C4.71897 8.71875 3.85714 9.58457 3.85714 10.6562V13.5625C1.72969 13.5625 0 15.3002 0 17.4375V21.7363C0.500223 22.0512 1.09085 22.2812 1.73571 22.2812C2.54933 22.2812 3.375 21.9119 4.05 21.4699C4.37545 21.258 4.64665 21.04 4.83348 20.8826C4.92388 20.8039 4.99621 20.7373 5.04442 20.6949C5.06853 20.6707 5.08661 20.6586 5.09263 20.6465L5.09866 20.6404C5.28549 20.4467 5.54464 20.3438 5.81585 20.3498C6.08705 20.3559 6.33415 20.477 6.51496 20.6768L6.52098 20.6828C6.52701 20.6889 6.54509 20.707 6.56317 20.7252C6.60536 20.7676 6.66563 20.8281 6.75 20.9068C6.91875 21.0643 7.15982 21.2762 7.46116 21.482C8.07589 21.9119 8.84732 22.2752 9.64888 22.2752C10.4504 22.2752 11.2219 21.9119 11.8366 21.482C12.1379 21.2701 12.379 21.0643 12.5478 20.9068C12.6321 20.8281 12.6924 20.7676 12.7346 20.7252C12.7527 20.707 12.7708 20.6889 12.7768 20.6828L12.7828 20.6768C12.9636 20.4648 13.2288 20.3498 13.506 20.3498C13.7833 20.3498 14.0484 20.4709 14.2292 20.6768L14.2353 20.6828C14.2413 20.6889 14.2594 20.707 14.2775 20.7252C14.3196 20.7676 14.3799 20.8281 14.4643 20.9068C14.633 21.0643 14.8741 21.2762 15.1754 21.482C15.7902 21.9119 16.5616 22.2752 17.3632 22.2752C18.1647 22.2752 18.9362 21.9119 19.5509 21.482C19.8522 21.2701 20.0933 21.0643 20.2621 20.9068C20.3464 20.8281 20.4067 20.7676 20.4489 20.7252C20.467 20.707 20.485 20.6889 20.4911 20.6828L20.4971 20.6768C20.6719 20.4709 20.925 20.3559 21.1962 20.3498C21.4674 20.3438 21.7205 20.4467 21.9134 20.6404L21.9194 20.6465C21.9315 20.6586 21.9435 20.6707 21.9676 20.6949C22.0159 20.7373 22.0821 20.8039 22.1786 20.8826C22.3654 21.04 22.6306 21.258 22.9621 21.4699C23.6371 21.9119 24.4627 22.2812 25.2763 22.2812C25.9212 22.2812 26.5118 22.0451 27.0121 21.7363V17.4375C27.0121 15.3002 25.2824 13.5625 23.1549 13.5625V10.6562C23.1549 9.58457 22.2931 8.71875 21.2263 8.71875C20.1596 8.71875 19.2978 9.58457 19.2978 10.6562V13.5625H15.4286V10.6562C15.4286 9.58457 14.5667 8.71875 13.5 8.71875C12.4333 8.71875 11.5714 9.58457 11.5714 10.6562V13.5625H7.71429V10.6562ZM27 23.8918C26.4877 24.0916 25.9031 24.2188 25.2643 24.2188C23.9083 24.2188 22.7089 23.6193 21.9013 23.0926C21.6542 22.9291 21.4313 22.7656 21.2444 22.6203C21.0757 22.7656 20.8768 22.923 20.6538 23.0744C19.8763 23.6133 18.7192 24.2188 17.3571 24.2188C15.9951 24.2188 14.8379 23.6133 14.0665 23.0744C13.8556 22.9291 13.6627 22.7777 13.5 22.6385C13.3373 22.7777 13.1444 22.923 12.9335 23.0744C12.1621 23.6133 11.0049 24.2188 9.64286 24.2188C8.2808 24.2188 7.12366 23.6133 6.35223 23.0744C6.12924 22.917 5.93036 22.7596 5.76161 22.6203C5.57478 22.7656 5.35179 22.9291 5.10469 23.0926C4.29107 23.6193 3.09174 24.2188 1.73571 24.2188C1.09688 24.2188 0.512277 24.0855 0 23.8918V29.0625C0 30.1342 0.86183 31 1.92857 31H25.0714C26.1382 31 27 30.1342 27 29.0625V23.8918Z" fill="#381806"/>
</g>
<defs>
<clipPath id="clip0_56_112">
<rect width="27" height="31" fill="white"/>
</clipPath>
</defs>
</svg>
