<svg width="24" height="37" viewBox="0 0 24 37" fill="none" xmlns="http://www.w3.org/2000/svg">
<path d="M4 0C1.79375 0 0 2.07402 0 4.625V32.375C0 34.926 1.79375 37 4 37H20C22.2062 37 24 34.926 24 32.375V11.5625H16C14.8938 11.5625 14 10.5291 14 9.25V0H4ZM16 0V9.25H24L16 0ZM7 18.5H17C17.55 18.5 18 19.0203 18 19.6562C18 20.2922 17.55 20.8125 17 20.8125H7C6.45 20.8125 6 20.2922 6 19.6562C6 19.0203 6.45 18.5 7 18.5ZM7 23.125H17C17.55 23.125 18 23.6453 18 24.2812C18 24.9172 17.55 25.4375 17 25.4375H7C6.45 25.4375 6 24.9172 6 24.2812C6 23.6453 6.45 23.125 7 23.125ZM7 27.75H17C17.55 27.75 18 28.2703 18 28.9062C18 29.5422 17.55 30.0625 17 30.0625H7C6.45 30.0625 6 29.5422 6 28.9062C6 28.2703 6.45 27.75 7 27.75Z" fill="#381806"/>
</svg>
